<svg width="167" height="72" viewBox="0 0 167 72" fill="none" xmlns="http://www.w3.org/2000/svg">
<path d="M155.705 18.8638L113.311 18.4893L157.653 20.8861L155.705 18.8638Z" fill="#EF522D"/>
<path d="M135.555 16.0172C126.736 9.84706 121.168 8.51823 110.538 8.52695C105.715 8.79106 101.699 9.48632 97.2317 10.8489C90.8909 12.4036 86.0275 14.2668 82.8242 16.4666C85.6125 14.1391 88.9368 12.0992 93.1183 10.3995C98.6299 7.83607 104.538 6.53733 114.058 6.42969C119.825 6.69135 124.45 7.53532 128.44 8.88537C134.995 10.3419 139.866 12.1704 145.218 15.2681L135.555 16.0172Z" fill="#005B70"/>
<path d="M111.137 9.79999C101.979 11.1018 97.3887 12.2513 89.4902 14.5188C92.4666 13.083 94.165 12.2773 99.3773 10.8486C104.073 9.80374 106.636 9.64709 111.137 9.79999Z" fill="#EF522D"/>
<path d="M156.603 17.8147L121.1 17.59L160.873 14.8936L158.476 18.1143L162.895 23.2826L161.771 23.9567L156.603 17.8147Z" fill="#005B70"/>
<path d="M68.8178 16.9905C56.7565 18.082 51.3408 19.4666 44.4746 23.1325C58.7134 19.5864 70.1979 18.3608 100.651 18.3388C85.4195 16.7153 78.5335 16.4607 68.8178 16.9905Z" fill="#005B70"/>
<path d="M5.9209 38.2963H0L1.61814 39.401L8.60554 55.1614L10.9922 49.7467C13.2685 44.5822 16.0801 39.6707 19.3808 35.0927C22.6817 30.5145 26.4506 26.2927 30.6264 22.4956L31.8167 21.4134C35.8978 17.7025 40.3277 14.3943 45.0446 11.535C49.3794 8.90725 53.9389 6.66935 58.6693 4.84761L60.1652 4.27151L67.8146 2.28305L81.7158 0.441881L93.4841 0H81.7158L67.8146 1.69388L60.1652 3.53504L57.4527 4.48682C53.5296 5.86337 49.7154 7.53278 46.0425 9.48096L45.861 9.57722C40.6047 12.3652 35.6711 15.723 31.1491 19.59C31.1491 19.59 26.8105 22.9285 24.3456 25.4081C19.7048 30.0765 17.5931 33.2651 14.4161 39.0328C11.8678 43.6591 9.1204 51.4791 9.1204 51.4791L4.33954 39.401L5.9209 38.8855V38.2963Z" fill="#EF522D"/>
<path d="M31.6092 28.7892C31.6092 30.1812 32.0252 31.5092 32.7772 32.5652C33.6092 33.7492 34.5532 34.3252 35.8492 34.3252C37.9452 34.3252 39.5292 32.3892 39.5292 29.5732C39.5292 28.3892 39.2572 27.2692 38.7452 26.2772C37.9612 24.7572 36.6812 23.9252 35.2732 23.9252C33.2092 23.9252 31.6092 25.8292 31.6092 28.7892ZM41.5452 36.9972L41.7692 37.2372C41.3852 37.8452 40.7932 38.1492 40.0892 38.1492C39.1132 38.1492 38.3292 37.4292 37.2572 36.4372C36.3292 35.5892 35.7052 34.9972 35.1292 34.8692C31.9772 34.5012 29.9132 32.1492 29.9132 29.1412C29.9132 27.5732 30.4732 26.1332 31.5292 25.0292C32.5852 23.9252 33.9292 23.3652 35.4812 23.3652C37.0812 23.3652 38.3292 23.8452 39.4492 24.9332C40.6812 26.1012 41.2412 27.5092 41.2412 29.3012C41.2412 30.7252 40.7132 31.9732 39.6412 33.1412C38.9372 33.9092 38.1852 34.4052 37.2732 34.6292C39.1612 35.8772 40.0892 37.0772 41.0652 37.0772C41.2092 37.0772 41.3692 37.0612 41.5452 36.9972ZM41.6466 34.7412V34.3412H41.7586C42.7026 34.3412 43.0226 33.7492 43.4386 32.5812L45.6786 26.2932C45.9666 25.5252 46.2066 24.8212 46.2066 24.0692V23.8772C46.5106 23.7172 46.8146 23.4772 47.0866 23.1892L47.4066 23.1732L51.0226 33.1892C51.3266 34.0052 51.5986 34.2932 52.5426 34.2932V34.7412C51.9506 34.7092 51.2786 34.6932 50.5266 34.6932C49.9986 34.6932 49.2786 34.7092 48.3986 34.7412V34.3412C49.1826 34.3092 49.5186 34.2132 49.5186 33.7812C49.5186 33.5892 49.4386 33.3172 49.3266 32.9652L48.5266 30.5492H44.8466L44.2226 32.4212C44.0306 32.9812 43.9666 33.3652 43.9666 33.5412C43.9666 34.1492 44.3986 34.3412 45.4386 34.3412V34.7412C44.4786 34.7092 43.8066 34.6932 43.4226 34.6932C42.8946 34.6932 42.3026 34.7092 41.6466 34.7412ZM45.0706 29.8932H48.2546L46.5586 25.1892L45.0706 29.8932ZM53.0385 34.3572L52.7185 31.9892H53.1025C53.5345 33.5092 54.4465 34.3252 55.5345 34.3252C56.8145 34.3252 57.7105 33.4772 57.7105 32.2132C57.7105 30.8692 56.7505 30.4532 55.3425 29.6212C53.8225 28.7252 53.0385 27.9892 53.0385 26.4692C53.0385 24.5972 54.3505 23.3652 56.4305 23.3652C56.9425 23.3652 57.5825 23.4452 58.3665 23.5892L58.6065 25.6052H58.2385C58.0625 24.5332 57.2945 23.8932 56.2385 23.8932C55.1505 23.8932 54.3505 24.6772 54.3505 25.7172C54.3505 27.0292 55.0865 27.6052 56.4305 28.3252C57.0545 28.6612 57.7265 28.9492 58.3025 29.5252C58.8465 30.0692 59.1345 30.7892 59.1345 31.6052C59.1345 33.5252 57.6465 34.9332 55.4225 34.9332C54.5425 34.9332 53.7265 34.7412 53.0385 34.3572ZM59.6785 34.7412V34.3412H59.7905C60.7345 34.3412 61.0545 33.7492 61.4705 32.5812L63.7105 26.2932C63.9985 25.5252 64.2385 24.8212 64.2385 24.0692V23.8772C64.5425 23.7172 64.8465 23.4772 65.1185 23.1892L65.4385 23.1732L69.0545 33.1892C69.3585 34.0052 69.6305 34.2932 70.5745 34.2932V34.7412C69.9825 34.7092 69.3105 34.6932 68.5585 34.6932C68.0305 34.6932 67.3105 34.7092 66.4305 34.7412V34.3412C67.2145 34.3092 67.5505 34.2132 67.5505 33.7812C67.5505 33.5892 67.4705 33.3172 67.3585 32.9652L66.5585 30.5492H62.8785L62.2545 32.4212C62.0625 32.9812 61.9985 33.3652 61.9985 33.5412C61.9985 34.1492 62.4305 34.3412 63.4705 34.3412V34.7412C62.5105 34.7092 61.8385 34.6932 61.4545 34.6932C60.9265 34.6932 60.3345 34.7092 59.6785 34.7412ZM63.1025 29.8932H66.2865L64.5905 25.1892L63.1025 29.8932ZM73.7743 28.8052C74.0143 28.8692 74.2543 28.9012 74.5103 28.9012C76.3343 28.9012 77.3743 27.9412 77.3743 26.4852C77.3743 24.8852 76.4143 24.0532 74.5423 24.0532C74.3023 24.0532 74.0463 24.0692 73.7743 24.1012V28.8052ZM70.8463 34.7412V34.3412C72.0303 34.3412 72.2223 34.0852 72.2223 33.0612V25.0452C72.2223 24.1812 72.0623 24.0212 70.8463 23.9572V23.5572C71.2783 23.5732 71.6783 23.5892 72.0783 23.5892C72.8623 23.5892 73.6303 23.5412 74.3983 23.5412C77.4223 23.5412 78.9583 24.4852 78.9583 26.3412C78.9583 27.5892 78.1903 28.5812 76.7343 29.1412C78.8463 32.5012 80.1423 34.3092 81.3103 34.3092H81.3583V34.7092C80.9423 34.6932 80.5743 34.6932 80.2063 34.6932C79.7903 34.6932 79.3263 34.6932 78.8303 34.7252C78.0463 33.9572 76.8623 32.2132 75.2463 29.4452H74.8143C74.3983 29.4452 74.0463 29.4292 73.7583 29.3972V32.4372C73.7583 33.9092 73.7903 34.3252 75.0863 34.3252H75.1503V34.7412C74.5583 34.7092 73.9023 34.6932 73.1823 34.6932C72.3823 34.6932 71.5983 34.7092 70.8463 34.7412Z" fill="#EF522D"/>
<path d="M92.7283 34.7412V34.3412H92.8403C93.7843 34.3412 94.1043 33.7492 94.5203 32.5812L96.7603 26.2932C97.0483 25.5252 97.2883 24.8212 97.2883 24.0692V23.8772C97.5923 23.7172 97.8963 23.4772 98.1683 23.1892L98.4883 23.1732L102.104 33.1892C102.408 34.0052 102.68 34.2932 103.624 34.2932V34.7412C103.032 34.7092 102.36 34.6932 101.608 34.6932C101.08 34.6932 100.36 34.7092 99.4803 34.7412V34.3412C100.264 34.3092 100.6 34.2132 100.6 33.7812C100.6 33.5892 100.52 33.3172 100.408 32.9652L99.6083 30.5492H95.9283L95.3043 32.4212C95.1123 32.9812 95.0483 33.3652 95.0483 33.5412C95.0483 34.1492 95.4803 34.3412 96.5203 34.3412V34.7412C95.5603 34.7092 94.8883 34.6932 94.5043 34.6932C93.9763 34.6932 93.3843 34.7092 92.7283 34.7412ZM96.1523 29.8932H99.3363L97.6403 25.1892L96.1523 29.8932ZM103.688 34.7412V34.3412H103.848C105.144 34.3412 105.16 33.9572 105.16 32.6932V25.0452C105.16 24.1812 104.984 24.0212 103.768 23.9572V23.5572C104.632 23.5892 105.464 23.6052 106.28 23.6052C107.224 23.6052 107.832 23.5732 108.088 23.5572V23.9572C106.744 24.0052 106.696 24.3732 106.696 25.6532V32.4212C106.696 33.7812 107.08 34.1492 108.68 34.1492C110.728 34.1492 111.64 34.0052 112.136 32.1972L112.504 32.2772L111.912 34.7252C109.192 34.6932 107.528 34.6772 106.872 34.6772C105.736 34.6772 104.664 34.7092 103.688 34.7412Z" fill="#EF522D"/>
<path d="M117.349 34.7412V34.3412C118.533 34.3412 118.725 34.0852 118.725 33.0612V25.0452C118.725 24.1812 118.565 24.0212 117.349 23.9572V23.5572C118.037 23.6052 118.757 23.6052 119.509 23.6052C120.357 23.6052 121.077 23.5892 121.653 23.5572V23.9572C120.309 24.0052 120.261 24.3732 120.261 25.6532V28.5972H126.661V25.0452C126.661 24.1012 126.613 24.0532 125.301 23.9572V23.5572C125.925 23.5892 126.645 23.6052 127.429 23.6052C127.765 23.6052 128.469 23.5892 129.573 23.5572V23.9572C128.245 24.0212 128.213 24.3572 128.213 25.4932V33.0452C128.213 34.0212 128.405 34.3252 129.573 34.3412V34.7412C128.965 34.7092 128.309 34.6932 127.589 34.6932C126.757 34.6932 126.005 34.7092 125.301 34.7412V34.3412H125.397C126.421 34.3412 126.661 34.0692 126.661 33.0612V29.3332H120.261V32.4372C120.261 33.9092 120.293 34.3252 121.589 34.3252H121.653V34.7412C121.061 34.7092 120.405 34.6932 119.685 34.6932C118.885 34.6932 118.101 34.7092 117.349 34.7412ZM129.729 34.7412V34.3412H129.841C130.785 34.3412 131.105 33.7492 131.521 32.5812L133.761 26.2932C134.049 25.5252 134.289 24.8212 134.289 24.0692V23.8772C134.593 23.7172 134.897 23.4772 135.169 23.1892L135.489 23.1732L139.105 33.1892C139.409 34.0052 139.681 34.2932 140.625 34.2932V34.7412C140.033 34.7092 139.361 34.6932 138.609 34.6932C138.081 34.6932 137.361 34.7092 136.481 34.7412V34.3412C137.265 34.3092 137.601 34.2132 137.601 33.7812C137.601 33.5892 137.521 33.3172 137.409 32.9652L136.609 30.5492H132.929L132.305 32.4212C132.113 32.9812 132.049 33.3652 132.049 33.5412C132.049 34.1492 132.481 34.3412 133.521 34.3412V34.7412C132.561 34.7092 131.889 34.6932 131.505 34.6932C130.977 34.6932 130.385 34.7092 129.729 34.7412ZM133.153 29.8932H136.337L134.641 25.1892L133.153 29.8932ZM141.975 34.7412V34.3412H142.151C143.431 34.3412 143.463 34.0212 143.463 32.9972V29.2852L140.407 25.0452C139.895 24.3412 139.479 23.9892 138.679 23.9892H138.631V23.5892C139.127 23.6052 139.751 23.6212 140.487 23.6212C141.287 23.6212 142.071 23.6052 142.807 23.5732V23.9412C142.183 23.9572 141.879 24.0692 141.879 24.3572C141.879 24.5652 142.039 24.7892 142.279 25.1092L144.663 28.4212L146.887 25.3972C147.175 24.9972 147.351 24.7092 147.351 24.4692C147.351 24.0372 147.015 23.9412 146.183 23.9412V23.5572C146.647 23.5732 147.175 23.5892 147.799 23.5892C148.439 23.5892 148.951 23.5892 149.335 23.5412V23.9732C148.663 24.0372 148.263 24.5972 147.671 25.4132L145.015 29.0452V32.2292C145.015 33.8612 145.015 34.3252 146.327 34.3252H146.535V34.7412C145.799 34.7092 145.079 34.6932 144.391 34.6932C143.735 34.6932 142.935 34.7092 141.975 34.7412ZM147.604 34.7412V34.3412H147.716C148.66 34.3412 148.98 33.7492 149.396 32.5812L151.636 26.2932C151.924 25.5252 152.164 24.8212 152.164 24.0692V23.8772C152.468 23.7172 152.772 23.4772 153.044 23.1892L153.364 23.1732L156.98 33.1892C157.284 34.0052 157.556 34.2932 158.5 34.2932V34.7412C157.908 34.7092 157.236 34.6932 156.484 34.6932C155.956 34.6932 155.236 34.7092 154.356 34.7412V34.3412C155.14 34.3092 155.476 34.2132 155.476 33.7812C155.476 33.5892 155.396 33.3172 155.284 32.9652L154.484 30.5492H150.804L150.18 32.4212C149.988 32.9812 149.924 33.3652 149.924 33.5412C149.924 34.1492 150.356 34.3412 151.396 34.3412V34.7412C150.436 34.7092 149.764 34.6932 149.38 34.6932C148.852 34.6932 148.26 34.7092 147.604 34.7412ZM151.028 29.8932H154.212L152.516 25.1892L151.028 29.8932Z" fill="#EF522D"/>
<path d="M16.0378 53.8389V53.3389H16.1778C17.3578 53.3389 17.7578 52.5989 18.2778 51.1389L21.0778 43.2789C21.4378 42.3189 21.7378 41.4389 21.7378 40.4989V40.2589C22.1178 40.0589 22.4978 39.7589 22.8378 39.3989L23.2378 39.3789L27.7578 51.8989C28.1378 52.9189 28.4778 53.2789 29.6578 53.2789V53.8389C28.9178 53.7989 28.0778 53.7789 27.1378 53.7789C26.4778 53.7789 25.5778 53.7989 24.4778 53.8389V53.3389C25.4578 53.2989 25.8778 53.1789 25.8778 52.6389C25.8778 52.3989 25.7778 52.0589 25.6378 51.6189L24.6378 48.5989H20.0378L19.2578 50.9389C19.0178 51.6389 18.9378 52.1189 18.9378 52.3389C18.9378 53.0989 19.4778 53.3389 20.7778 53.3389V53.8389C19.5778 53.7989 18.7378 53.7789 18.2578 53.7789C17.5978 53.7789 16.8578 53.7989 16.0378 53.8389ZM20.3178 47.7789H24.2978L22.1778 41.8989L20.3178 47.7789ZM30.5377 53.8389V53.3389H30.7377C32.3577 53.3389 32.3777 52.8589 32.3777 51.2789V41.7189C32.3777 40.6389 32.1577 40.4389 30.6377 40.3589V39.8589C31.7177 39.8989 32.7577 39.9189 33.7777 39.9189C34.9577 39.9189 35.7177 39.8789 36.0377 39.8589V40.3589C34.3577 40.4189 34.2977 40.8789 34.2977 42.4789V50.9389C34.2977 52.6389 34.7777 53.0989 36.7777 53.0989C39.3377 53.0989 40.4777 52.9189 41.0977 50.6589L41.5577 50.7589L40.8177 53.8189C37.4177 53.7789 35.3377 53.7589 34.5177 53.7589C33.0977 53.7589 31.7577 53.7989 30.5377 53.8389ZM42.9331 53.8389V53.3389C44.4131 53.3389 44.6731 53.0189 44.6731 51.7389V41.7189C44.6731 40.6389 44.4531 40.4389 42.9331 40.3589V39.8589C44.1931 39.8789 45.4931 39.8989 46.8331 39.8989C49.5331 39.8989 51.4531 39.8589 52.6331 39.8389V42.9389H52.2131C52.1131 41.0589 51.0931 40.5389 48.7131 40.5389H46.6131V46.1389H49.1931C50.4131 46.1389 50.8931 45.7589 50.9131 44.4589H51.4531C51.3731 45.1989 51.3331 45.7989 51.3331 46.2989C51.3331 47.1189 51.3931 48.0189 51.4731 48.9789H50.9531V48.8189C50.9531 47.1789 50.3131 47.0189 48.4531 47.0189H46.6131V51.1989C46.6131 53.0189 47.1331 53.1989 49.4131 53.1989C51.7531 53.1989 52.7331 52.8589 53.5331 50.7189L54.0131 50.8589C53.7331 51.5589 53.4131 52.5989 53.1531 53.9189C49.1131 53.8189 46.6131 53.7989 45.6331 53.7989C44.7331 53.7989 43.8331 53.8189 42.9331 53.8389ZM58.5397 53.8389V53.3389H58.7997C60.2197 53.3389 60.4597 52.9989 60.4597 51.7389V40.6789H58.3997C56.5997 40.6789 55.8797 40.9389 55.6597 42.5589L55.1597 42.5389L55.3797 39.3389L55.7997 39.3589C56.0997 39.8789 56.7197 39.8989 57.7997 39.8989H64.6397C66.3597 39.8989 67.2397 39.7589 67.2797 39.3389H67.6997L67.5397 42.4189H67.0397V42.2789C67.0397 40.7789 66.3997 40.6989 64.5597 40.6989H62.3797V50.8189C62.3797 52.7589 62.3997 53.3189 64.0197 53.3189H64.2797V53.8389C63.2397 53.7789 62.2397 53.7789 61.2797 53.7789C60.6997 53.7789 59.7797 53.7989 58.5397 53.8389Z" fill="#005B70"/>
<path d="M73.2601 53.8389V53.3389C74.7401 53.3389 75.0001 53.0189 75.0001 51.7389V41.7189C75.0001 40.6389 74.7801 40.4389 73.2601 40.3589V39.8589C74.1001 39.8989 74.8001 39.9189 75.3601 39.9189C76.2601 39.9189 77.1401 39.8589 77.9601 39.8589C81.2201 39.8589 83.0201 41.3589 83.0201 43.6789C83.0201 46.0389 81.2601 47.7389 78.4601 47.7389C78.2401 47.7389 78.0001 47.7189 77.7601 47.6989L77.7801 47.1189C77.9201 47.1389 78.0401 47.1389 78.1801 47.1389C79.9601 47.1389 80.9801 45.9789 80.9801 43.9189C80.9801 41.7189 79.7401 40.4989 77.5401 40.4989C77.3401 40.4989 77.1401 40.4989 76.9201 40.5189V50.9589C76.9201 52.7989 76.9601 53.3189 78.5801 53.3189H78.6601V53.8389C77.9201 53.7989 77.0801 53.7789 76.1801 53.7789C75.1801 53.7789 74.2001 53.7989 73.2601 53.8389ZM82.5648 53.8389V53.3389H82.7048C83.8848 53.3389 84.2848 52.5989 84.8048 51.1389L87.6048 43.2789C87.9648 42.3189 88.2648 41.4389 88.2648 40.4989V40.2589C88.6448 40.0589 89.0248 39.7589 89.3648 39.3989L89.7648 39.3789L94.2848 51.8989C94.6648 52.9189 95.0048 53.2789 96.1848 53.2789V53.8389C95.4448 53.7989 94.6048 53.7789 93.6648 53.7789C93.0048 53.7789 92.1048 53.7989 91.0048 53.8389V53.3389C91.9848 53.2989 92.4048 53.1789 92.4048 52.6389C92.4048 52.3989 92.3048 52.0589 92.1648 51.6189L91.1648 48.5989H86.5648L85.7848 50.9389C85.5448 51.6389 85.4648 52.1189 85.4648 52.3389C85.4648 53.0989 86.0048 53.3389 87.3048 53.3389V53.8389C86.1048 53.7989 85.2648 53.7789 84.7848 53.7789C84.1248 53.7789 83.3848 53.7989 82.5648 53.8389ZM86.8448 47.7789H90.8248L88.7048 41.8989L86.8448 47.7789ZM100.985 46.4189C101.285 46.4989 101.585 46.5389 101.905 46.5389C104.185 46.5389 105.485 45.3389 105.485 43.5189C105.485 41.5189 104.285 40.4789 101.945 40.4789C101.645 40.4789 101.325 40.4989 100.985 40.5389V46.4189ZM97.3246 53.8389V53.3389C98.8046 53.3389 99.0446 53.0189 99.0446 51.7389V41.7189C99.0446 40.6389 98.8446 40.4389 97.3246 40.3589V39.8589C97.8646 39.8789 98.3646 39.8989 98.8646 39.8989C99.8446 39.8989 100.805 39.8389 101.765 39.8389C105.545 39.8389 107.465 41.0189 107.465 43.3389C107.465 44.8989 106.505 46.1389 104.685 46.8389C107.325 51.0389 108.945 53.2989 110.405 53.2989H110.465V53.7989C109.945 53.7789 109.485 53.7789 109.025 53.7789C108.505 53.7789 107.925 53.7789 107.305 53.8189C106.325 52.8589 104.845 50.6789 102.825 47.2189H102.285C101.765 47.2189 101.325 47.1989 100.965 47.1589V50.9589C100.965 52.7989 101.005 53.3189 102.625 53.3189H102.705V53.8389C101.965 53.7989 101.145 53.7789 100.245 53.7789C99.2446 53.7789 98.2646 53.7989 97.3246 53.8389ZM115.291 46.8789L120.031 41.9189C120.451 41.4789 120.731 41.1989 120.731 40.8789C120.731 40.5189 120.371 40.4189 119.591 40.4189V39.9389C120.431 39.9589 121.171 39.9789 121.791 39.9789C122.511 39.9789 123.271 39.9589 124.071 39.8989V40.3789C122.891 40.4189 122.031 40.9389 121.071 41.9189L117.071 46.0589L122.131 51.6589C123.071 52.6989 123.851 53.2989 124.811 53.3189V53.8389C124.371 53.8189 123.971 53.7989 123.611 53.7989C123.191 53.7989 122.511 53.8189 121.591 53.8389L115.291 46.8789ZM115.271 51.7189C115.271 52.9589 115.511 53.2989 117.011 53.3189V53.8389C116.271 53.7989 115.431 53.7789 114.531 53.7789C113.531 53.7789 112.571 53.7989 111.631 53.8389V53.3389C113.111 53.3389 113.351 53.0189 113.351 51.7389V41.7189C113.351 40.6389 113.151 40.4389 111.631 40.3589V39.8589C112.691 39.8989 113.731 39.9189 114.751 39.9189C115.471 39.9189 116.231 39.8989 117.011 39.8589V40.3589C115.331 40.4189 115.271 40.8789 115.271 42.4789V51.7189ZM126.012 53.8389V53.3389C127.492 53.3389 127.732 53.0189 127.732 51.7389V41.7189C127.732 40.6389 127.532 40.4389 126.012 40.3589V39.8589C126.832 39.8989 127.732 39.9189 128.712 39.9189C129.612 39.9189 130.492 39.9189 131.392 39.8589V40.3589C129.712 40.4189 129.652 40.8789 129.652 42.4789V50.9589C129.652 52.7989 129.692 53.3189 131.312 53.3189H131.392V53.8389C130.652 53.7989 129.832 53.7789 128.932 53.7789C127.932 53.7789 126.952 53.7989 126.012 53.8389ZM132.95 53.8189V53.3189H133.01C134.95 53.3189 134.95 52.3989 134.95 50.0189V42.5589C134.95 41.0389 134.39 40.4789 132.63 40.4189V39.8989C133.47 39.9189 134.05 39.9189 134.33 39.9189C134.75 39.9189 135.31 39.9189 136.05 39.8789L145.79 50.6589V43.6589C145.79 41.2389 145.51 40.3789 143.69 40.3789H143.49V39.8389C144.17 39.8589 144.99 39.8789 145.93 39.8789C146.93 39.8789 147.81 39.8589 148.55 39.8389V40.3389C146.69 40.4389 146.65 41.1589 146.65 43.4589V54.0389H146.21L135.83 42.4989V50.0389C135.83 52.4989 136.03 53.2989 138.27 53.2989V53.8189C137.15 53.7789 136.19 53.7589 135.43 53.7589C134.71 53.7589 133.89 53.7789 132.95 53.8189ZM160.699 49.6789C160.699 48.5989 160.499 48.4189 158.979 48.3389V47.8389C159.819 47.8789 160.719 47.8989 161.679 47.8989C162.579 47.8989 163.459 47.8989 164.359 47.8389V48.3389C162.679 48.3989 162.619 48.8589 162.619 50.4589V52.2589L162.939 52.5989V52.9789C160.999 53.6989 159.219 54.0789 157.579 54.0789C153.079 54.0789 150.219 51.2389 150.219 46.8989C150.219 44.8589 150.919 43.1189 152.279 41.7589C153.659 40.3789 155.559 39.6189 157.739 39.6189C159.179 39.6189 160.799 39.9989 162.659 40.6789L162.979 43.4389L162.519 43.4589C162.119 41.4189 160.479 40.2389 157.999 40.2389C154.739 40.2389 152.379 42.7789 152.379 46.7189C152.379 48.3789 152.919 50.0189 153.699 51.0789C154.839 52.6189 156.299 53.3989 158.039 53.3989C159.099 53.3989 160.019 53.1389 160.699 52.6789V49.6789Z" fill="#005B70"/>
<path d="M91.7021 68.9856L91.5021 67.5056H91.7421C92.0121 68.4556 92.5821 68.9656 93.2621 68.9656C94.0621 68.9656 94.6221 68.4356 94.6221 67.6456C94.6221 66.8056 94.0221 66.5456 93.1421 66.0256C92.1921 65.4656 91.7021 65.0056 91.7021 64.0556C91.7021 62.8856 92.5221 62.1156 93.8221 62.1156C94.1421 62.1156 94.5421 62.1656 95.0321 62.2556L95.1821 63.5156H94.9521C94.8421 62.8456 94.3621 62.4456 93.7021 62.4456C93.0221 62.4456 92.5221 62.9356 92.5221 63.5856C92.5221 64.4056 92.9821 64.7656 93.8221 65.2156C94.2121 65.4256 94.6321 65.6056 94.9921 65.9656C95.3321 66.3056 95.5121 66.7556 95.5121 67.2656C95.5121 68.4656 94.5821 69.3456 93.1921 69.3456C92.6421 69.3456 92.1321 69.2256 91.7021 68.9856ZM96.6021 69.2256V68.9756C97.3421 68.9756 97.4721 68.8156 97.4721 68.1756V63.1656C97.4721 62.6256 97.3621 62.5256 96.6021 62.4856V62.2356C97.2321 62.2456 97.8821 62.2556 98.5521 62.2556C99.9021 62.2556 100.862 62.2356 101.452 62.2256V63.7756H101.242C101.192 62.8356 100.682 62.5756 99.4921 62.5756H98.4421V65.3756H99.7321C100.342 65.3756 100.582 65.1856 100.592 64.5356H100.862C100.822 64.9056 100.802 65.2056 100.802 65.4556C100.802 65.8656 100.832 66.3156 100.872 66.7956H100.612V66.7156C100.612 65.8956 100.292 65.8156 99.3621 65.8156H98.4421V67.9056C98.4421 68.8156 98.7021 68.9056 99.8421 68.9056C101.012 68.9056 101.502 68.7356 101.902 67.6656L102.142 67.7356C102.002 68.0856 101.842 68.6056 101.712 69.2656C99.6921 69.2156 98.4421 69.2056 97.9521 69.2056C97.5021 69.2056 97.0521 69.2156 96.6021 69.2256ZM104.705 65.5156C104.855 65.5556 105.005 65.5756 105.165 65.5756C106.305 65.5756 106.955 64.9756 106.955 64.0656C106.955 63.0656 106.355 62.5456 105.185 62.5456C105.035 62.5456 104.875 62.5556 104.705 62.5756V65.5156ZM102.875 69.2256V68.9756C103.615 68.9756 103.735 68.8156 103.735 68.1756V63.1656C103.735 62.6256 103.635 62.5256 102.875 62.4856V62.2356C103.145 62.2456 103.395 62.2556 103.645 62.2556C104.135 62.2556 104.615 62.2256 105.095 62.2256C106.985 62.2256 107.945 62.8156 107.945 63.9756C107.945 64.7556 107.465 65.3756 106.555 65.7256C107.875 67.8256 108.685 68.9556 109.415 68.9556H109.445V69.2056C109.185 69.1956 108.955 69.1956 108.725 69.1956C108.465 69.1956 108.175 69.1956 107.865 69.2156C107.375 68.7356 106.635 67.6456 105.625 65.9156H105.355C105.095 65.9156 104.875 65.9056 104.695 65.8856V67.7856C104.695 68.7056 104.715 68.9656 105.525 68.9656H105.565V69.2256C105.195 69.2056 104.785 69.1956 104.335 69.1956C103.835 69.1956 103.345 69.2056 102.875 69.2256ZM112.557 69.3456H112.187L109.967 63.6756C109.667 62.9056 109.527 62.5156 108.777 62.4856V62.2456C109.297 62.2656 109.807 62.2656 110.327 62.2656C110.647 62.2656 111.017 62.2656 111.427 62.2356V62.4956C110.957 62.5156 110.747 62.5756 110.747 62.7856C110.747 62.8556 110.787 62.9956 110.867 63.2156L112.667 67.9356L114.167 64.0456C114.397 63.4456 114.467 63.0656 114.467 62.9556C114.467 62.6156 114.257 62.5256 113.697 62.5056V62.2356C113.887 62.2556 114.327 62.2556 115.007 62.2556C115.257 62.2556 115.517 62.2556 115.797 62.2356V62.5056C115.207 62.5056 115.077 62.9956 114.727 63.8756L112.557 69.3456ZM116.258 69.2256V68.9756C116.998 68.9756 117.118 68.8156 117.118 68.1756V63.1656C117.118 62.6256 117.018 62.5256 116.258 62.4856V62.2356C116.668 62.2556 117.118 62.2656 117.608 62.2656C118.058 62.2656 118.498 62.2656 118.948 62.2356V62.4856C118.108 62.5156 118.078 62.7456 118.078 63.5456V67.7856C118.078 68.7056 118.098 68.9656 118.908 68.9656H118.948V69.2256C118.578 69.2056 118.168 69.1956 117.718 69.1956C117.218 69.1956 116.728 69.2056 116.258 69.2256ZM126.146 67.3556L125.926 68.8056C125.186 69.1656 124.436 69.3356 123.646 69.3356C122.586 69.3356 121.706 69.0156 121.036 68.3856C120.356 67.7556 119.936 66.7656 119.936 65.7556C119.936 64.7356 120.336 63.8156 121.106 63.0956C121.796 62.4456 122.676 62.1256 123.746 62.1256C124.486 62.1256 125.236 62.2956 126.016 62.6256C126.066 63.0556 126.096 63.5256 126.116 64.0356H125.916C125.656 62.9356 125.016 62.4356 123.826 62.4356C123.156 62.4356 122.576 62.6356 122.126 63.0056C121.396 63.6056 120.996 64.4756 120.996 65.4856C120.996 66.1456 121.146 66.7756 121.456 67.3556C122.006 68.3956 122.866 68.9656 123.886 68.9656C124.956 68.9656 125.706 68.3656 125.926 67.3056L126.146 67.3556ZM127.053 69.2256V68.9756C127.793 68.9756 127.923 68.8156 127.923 68.1756V63.1656C127.923 62.6256 127.813 62.5256 127.053 62.4856V62.2356C127.683 62.2456 128.333 62.2556 129.003 62.2556C130.353 62.2556 131.313 62.2356 131.903 62.2256V63.7756H131.693C131.643 62.8356 131.133 62.5756 129.943 62.5756H128.893V65.3756H130.183C130.793 65.3756 131.033 65.1856 131.043 64.5356H131.313C131.273 64.9056 131.253 65.2056 131.253 65.4556C131.253 65.8656 131.283 66.3156 131.323 66.7956H131.063V66.7156C131.063 65.8956 130.743 65.8156 129.813 65.8156H128.893V67.9056C128.893 68.8156 129.153 68.9056 130.293 68.9056C131.463 68.9056 131.953 68.7356 132.353 67.6656L132.593 67.7356C132.453 68.0856 132.293 68.6056 132.163 69.2656C130.143 69.2156 128.893 69.2056 128.403 69.2056C127.953 69.2056 127.503 69.2156 127.053 69.2256Z" fill="#EF522D"/>
<path d="M140.206 69.2256V68.9756H140.306C141.116 68.9756 141.126 68.7356 141.126 67.9456V63.1656C141.126 62.6256 141.016 62.5256 140.256 62.4856V62.2356C140.796 62.2556 141.316 62.2656 141.826 62.2656C142.416 62.2656 142.796 62.2456 142.956 62.2356V62.4856C142.116 62.5156 142.086 62.7456 142.086 63.5456V67.7756C142.086 68.6256 142.326 68.8556 143.326 68.8556C144.606 68.8556 145.176 68.7656 145.486 67.6356L145.716 67.6856L145.346 69.2156C143.646 69.1956 142.606 69.1856 142.196 69.1856C141.486 69.1856 140.816 69.2056 140.206 69.2256ZM146.233 69.2256V68.9756H146.333C147.143 68.9756 147.153 68.7356 147.153 67.9456V63.1656C147.153 62.6256 147.043 62.5256 146.283 62.4856V62.2356C146.823 62.2556 147.343 62.2656 147.853 62.2656C148.443 62.2656 148.823 62.2456 148.983 62.2356V62.4856C148.143 62.5156 148.113 62.7456 148.113 63.5456V67.7756C148.113 68.6256 148.353 68.8556 149.353 68.8556C150.633 68.8556 151.203 68.7656 151.513 67.6356L151.743 67.6856L151.373 69.2156C149.673 69.1956 148.633 69.1856 148.223 69.1856C147.513 69.1856 146.843 69.2056 146.233 69.2256ZM152.621 68.6856C152.621 68.3156 152.911 68.0356 153.281 68.0356C153.651 68.0356 153.931 68.3156 153.931 68.6856C153.931 69.0556 153.651 69.3456 153.281 69.3456C152.911 69.3456 152.621 69.0556 152.621 68.6856ZM161.624 67.3556L161.404 68.8056C160.664 69.1656 159.914 69.3356 159.124 69.3356C158.064 69.3356 157.184 69.0156 156.514 68.3856C155.834 67.7556 155.414 66.7656 155.414 65.7556C155.414 64.7356 155.814 63.8156 156.584 63.0956C157.274 62.4456 158.154 62.1256 159.224 62.1256C159.964 62.1256 160.714 62.2956 161.494 62.6256C161.544 63.0556 161.574 63.5256 161.594 64.0356H161.394C161.134 62.9356 160.494 62.4356 159.304 62.4356C158.634 62.4356 158.054 62.6356 157.604 63.0056C156.874 63.6056 156.474 64.4756 156.474 65.4856C156.474 66.1456 156.624 66.7756 156.934 67.3556C157.484 68.3956 158.344 68.9656 159.364 68.9656C160.434 68.9656 161.184 68.3656 161.404 67.3056L161.624 67.3556Z" fill="#EF522D"/>
</svg>
